<?xml version="1.0" encoding="UTF-8"?>
<svg id="b" data-name="Layer 2" xmlns="http://www.w3.org/2000/svg" viewBox="0 0 5125.57 1927.6">
  <defs>
    <style>
      .d {
        opacity: .35;
      }

      .d, .e, .f, .g, .h {
        fill: #fcfbf6;
        stroke-width: 0px;
      }

      .e {
        opacity: .73;
      }

      .f {
        opacity: .84;
      }

      .g {
        opacity: .56;
      }
    </style>
  </defs>
  <g id="c" data-name="birds">
    <path class="d" d="m5051.92,56.19c-7.1-18.73-14.19-37.46-21.29-56.19-10.58,1.21-20.19,3.88-26.64,11.32,2.46,13.89,4.91,27.77,7.36,41.66,1.91,5.21,3.81,10.41,5.72,15.62-1.66,2.65-3.33,5.3-5,7.95-6.6,4.36-13.21,8.72-23.12,15.26,10.37,1.99,16.49,3.35,22.73,4.32,26.27,4.1,52.68,7.76,78.82,12.27,10.23,1.77,19.99,2.46,29.66-1.19,2.5-.94,5.08-3.82,5.36-5.92.3-2.27-1.2-5.77-3.44-6.8-4.59-2.13-10.06-3.45-15.41-4.25-16.83-2.51-30.8-9.3-44.92-16.11-8.84-4.26-10.79-10.45-9.83-17.94Z"/>
    <path class="g" d="m3793.4,253.4c5.54,4.91,9.23,8.21,12.96,11.49,7.62,6.68,11.11,14.61,7.36,23.31-4.32,10.02-1.66,18.86,3.24,27.7,3.11,5.61,6,11.31,9.53,16.75,3.3,5.1,8.1,9.08,16.08,9.23,6.2-2.24,6.32-6.38,6.9-10.23,2.18-14.62,5.38-29.09,11.88-43.12,1.21-2.62,2.8-5.15,4.76-8.71,5.33.6,10.2.86,14.83,1.74,7.71,1.47,15.16,3.66,22.92,4.91,4.93.79,8.33-1.75,9.77-5.42,4.87-12.35-4.11-24.35-20.36-26.45-9.89-1.28-20.02-1.67-30.3-2.49-3.93-6.86-2.69-13.69-3.01-20.31-.46-9.53-.4-19.12-1.65-28.57-1.24-9.39-7.01-14.62-14.53-14.24-9.48.49-14.09,5.79-17.07,11.88-3.38,6.93-6.8,13.91-9.07,21.05-3.74,11.79-8.84,22.86-24.25,31.49Z"/>
    <path class="g" d="m4348.81,517.38c16.63,4.07,30.41,12.88,43.08,22.43,15.64,11.8,31.73,11.1,49.27,4.9,4.33-1.53,7.41-4.12,9.13-8.08,2.39-5.5.52-10.3-5.54-12.33-4.07-1.36-8.55-1.78-12.61-3.15-4.49-1.51-8.72-3.62-12.69-5.31.41-2.3.18-3.73.87-4.43,12.94-13.09,25.95-26.12,39.03-39.09,3.37-3.34,7.1-6.41,10.54-9.7,5.16-4.94,6.93-10.63,4.65-17.1-16.68,3.15-33.34,6.38-50.05,9.39-5.46.98-11.09,2.28-17.61-.83-.26-3.48-.6-7.25-.79-11.03-.44-8.4-.57-16.82-1.31-25.19-.28-3.26-1.46-6.56-2.91-9.56-1.94-4-7.52-5.07-11-2.02-4.51,3.95-8.58,8.31-12.68,12.61-7.37,7.73-14.62,15.55-23.06,24.54-1.32,7.99-.41,17.36,3.16,26.48,2.69,6.87,5.22,13.73,3.59,21.77-12.91,6.14-28.78,1.68-42.73,9.59,2.45,2.07,4.17,4.2,6.51,5.36,7.6,3.77,15.43,7.19,23.17,10.75Z"/>
    <path class="h" d="m31.32,1191.84c-10.43,3.51-20.86,7.02-31.29,10.54-.47,10.18,4.91,15.88,15.5,17.04,12.4,1.36,22.51,7.13,32.46,13.45,8.4,5.34,16.92,10.5,25.4,15.74,15.67,9.67,29.33,21.12,37.94,37.1,1.07,1.99,2.35,3.9,3.71,5.74,6.7,9.05,15.5,13.61,27.7,11.26,13.69-2.63,26.84-6.2,37.58-15.33,6.25-5.3,13.15-9.94,19.22-15.4,5.18-4.65,4.12-10.73-2.25-13.94-4.7-2.37-9.86-3.98-14.88-5.76-10.07-3.57-20.23-6.93-30.27-10.57-2.63-.96-4.97-2.62-7.12-3.79,12.16-19.05,22.87-37.9,35.74-55.37,12.35-16.76,23.37-34.13,33.86-51.87,5.57-9.42,10.48-19.02,12.47-29.7-9.48.78-18.96,1.56-28.43,2.33-4.51,2.78-9.02,5.58-13.53,8.37-4.24,2.62-8.36,3.2-13.53,1.66-4.28-1.27-9.36-.96-13.96-.41-4.71.56-9.52,1.76-13.83,3.61-4.65,2-8.78,5.08-14.46,8.47-1.94-10.11-5.38-19.37-2.76-28.51,2.33-8.15,1.35-15.3-1.08-22.91-1.35-4.23-1.64-8.79-2.11-13.22-1.53-14.46-2.92-28.93-4.37-43.39-7.35-1.78-12.92.59-16.7,6.63-5.44,8.69-10.8,17.42-16.07,26.2-5.29,8.82-11.24,17.02-19.34,24-5.2,4.48-9,10.36-13.44,15.61-1.08,4.51-2.16,9.02-3.24,13.53.14,5.64.28,11.29.42,16.93,3.73,9.28,6.87,18.82,11.32,27.78,7.53,15.16,10.42,13.41-3.14,31.1-1.38,1.8-2.48,3.79-3.69,5.7-2.98,4.69-7.46,7.07-13.19,7.32-3.54.15-7.1.05-10.64.06Z"/>
    <path class="f" d="m1426.61,913.34c-8.99,2.75-14.84,8.45-18.65,17.48-4.61,10.91-11.76,20.27-22.18,26.32-19.04,11.06-20.65,22.35-12.88,47.75.64,2.1,2.05,3.96,3.13,5.92.81,1.47,1.7,2.89,2.47,4.39,8.32,16.18-1.62,33.73-19.69,34.56-3.26.15-6.56-.55-9.83-.91-8.6-.95-16.23,2.31-23.72,5.84-3.68,1.74-4.16,7.74-.72,9.86,3.71,2.28,7.77,4.44,11.94,5.4,20.18,4.61,38.39,13.56,55.92,24.53,11.39,7.13,22.42,14.64,30.6,25.45,7.43,9.81,17.11,11.44,27.98,10.38,2.71-.26,5.46-.96,8.02-1.92,12.9-4.83,25.83-9.61,38.58-14.84,6-2.46,7.35-6.05,5.33-12.13-1.04-3.14-2.85-6.01-4.73-9.87-6.16-1.08-12.59-2.35-19.06-3.31-5.99-.89-12.05-1.31-18.04-2.19-3.84-.57-5.7-4.62-3.52-7.47,8.05-10.55,16.2-21.02,24.3-31.52,10.36-13.76,20.81-27.44,31.06-41.29,4.3-5.81,8.12-11.98,12.22-17.95,2.33-3.4,3.23-7.07,2.36-11.15-15.21.21-28.79,6.2-42.89,13.07-7.53-6.68-15.73-5.24-24.49-2.31-5.61,1.88-11.85,1.79-17.82,2.58-.99-1.13-1.99-2.25-2.98-3.37-.02-6.71-.04-13.41-.07-20.12-1.06-6-2.26-11.97-3.14-17.99-1.77-12.13-4.49-23.97-9.5-35.19Z"/>
    <path class="e" d="m2377.16,1289.9c-4.81-.2-10.11.16-11.38,4.13-4.39,13.75-8.68,27.54-11.82,41.42-1.87,8.25,2.03,15.32,11.98,20.05,4.99,2.37,9.11,5.66,13.87,8.31,10.21,5.68,13,12.93,7.98,22.66-9.65,4.08-19.77,8.22-29.65,12.66-1.61.73-3.37,3.13-2.92,4.2.79,1.86,2.87,4.32,5.09,4.7,5.02.86,10.46.96,15.72.73,14.5-.63,29.03-1.24,43.49-2.52,17.94-1.58,35.34-.7,51.23,4.85,17.96,6.27,32.3,2.61,44.72-8.35,7.9-6.97,16.27-13.81,21.54-23.5-3.82-1.22-7-3.23-10-3.01-10.6.78-21.17,2.15-31.68,3.66-5.97.86-11.86,2.94-17.47-.35-3.71-6.09.21-12.08,2.02-18.04,5.04-16.58,10.39-33.11,15.6-49.66.69-2.21,1.74-4.45,1.74-6.64,0-2.12-.2-5.18-1.99-6.06-2.76-1.36-6.94-1.21-10.52-1.71-18.68,11.23-37.35,22.46-57.17,34.38-3.16-1.39-7.27-2.6-10.3-4.66-3.8-2.57-7.54-5.51-9.88-8.87-7.64-10.95-19.62-19.24-30.21-28.39Z"/>
    <path class="e" d="m1834.55,296.01c-9.98-6.14-19.86-2.44-28.34,2.27-8.37,4.65-16,7.09-26.19,7.19-19.21.18-31.79,12.51-34.5,30.18-.76,4.97-1.82,10.05-3.79,14.73-3.69,8.73-13.62,12.93-23.1,9.38-7.5-2.81-15.37-4.88-23.12-7.15-7.31-2.14-14.65-2.53-23.32.78,1.88,2.72,3.04,5.24,5,7.07,3.89,3.61,7.97,7.15,12.44,10.17,15.28,10.31,26.43,23.78,36.07,38.17,4.73,7.07,7.9,15.18,10.48,23.16,2.79,8.61,8.49,13.25,18.24,14.59,11.82,1.63,23.6,3.52,35.43,5.07,3.71.49,7.58.59,11.32.27,7.9-.68,10.97-5.12,8.27-11.82-.83-2.07-2.49-3.86-3.77-5.77-10.13-7.4-20.44-14.61-30.33-22.24-11.14-8.59-14.84-16.79,3.09-23.59,9.08-3.44,15.02-9.54,19.55-17.54,8.53-15.05,17.97-29.72,27.42-44.36,6.18-9.57,9.68-19.57,9.16-30.54Z"/>
    <path class="e" d="m2759.65,941.46c1.31-9.53,2.81-19.04,3.88-28.58,1.54-13.74-4.3-21.21-20.52-25.26-7.97-1.99-16.44-2.83-24.69-4.19-12.19-2.01-12.4-2.12-22.43-11.72,1.33-3.31,2.26-7.24,4.42-10.72,11.67-18.83,16.8-38.52,15.9-59.13-.27-6.13.64-12.42-.66-18.37-2.27-10.36-9.36-12.54-21.46-7.43-2.51,1.06-5.27,2.19-7.04,3.86-15.64,14.77-34.21,28.12-37.88,48.69-.97,5.45-2.95,11.1-9.53,15.24-7.23-1.2-14.57-3.13-22.08-3.46-7.67-.34-15.53.89-23.3,1.43,4.64,5.35,9.02,10.86,14,16.01,4.18,4.32,9.04,8.21,13.6,12.29,5.69,2.54,10.39,6.38,10.18,11.47-.17,4.06-3.26,8.34-5.95,12.13-2.73,3.85-6.56,7.23-9.91,10.82-6.14,10.17-6.88,20.38-3.89,31.23,2.54,9.21,2.38,18.95,4.35,28.3,1.61,7.66,3.52,15.49,7.26,22.55,4.42,8.35,17.65,9.06,23.91,1.27,5.32-6.61,9.62-14.1,12.15-21.62,6.21-18.44,18.86-34.19,30.42-49.2,7.08-2.92,11.17-.42,15.08,1.78,9.67,5.42,18.98,11.25,28.74,16.57,7.5,4.08,15.42,7.75,25.44,6.03Z"/>
    <path class="g" d="m3613.35,923.76c-.1,1.11-.1,2.24-.31,3.34-3.73,19.42-15.6,31.15-37.79,33.81-7.3.88-14.53,2.83-21.61,4.83-12.53,3.55-24.37,8.29-32.08,18.8l-.25-.18c10.11-2.67,20.39-4.89,30.26-8.16,8.14-2.69,15.56-3.04,23.17.75,8.29,4.13,17.23,5.38,26.79,5.28,14.92-.15,29.53,2.06,43.78,6.12,8.81,2.51,17.7,5.06,26.77,6.57,11.95,1.99,23.44-8.68,21.36-19.62-.42-2.23-3.31-4.85-5.77-5.79-10.22-3.9-20.74-7.15-31.08-10.79-3.98-1.4-8.05-2.84-11.57-4.95-3.38-2.03-4.61-5.81-2.37-8.92,3.72-5.15,8.12-9.95,12.62-14.58,13.6-14,27.46-27.78,41.03-41.81,3.19-3.3,5.61-7.21,8.12-10.51-2.41-4.46-5.79-2.9-8.43-2.1-7.05,2.15-13.96,4.71-20.93,7.1-10.88,5.32-21.76,10.64-32.63,15.97-4.73,2.54-9.46,5.08-14.2,7.62-4.97,5.74-9.94,11.48-14.91,17.22Z"/>
    <path class="h" d="m4572.21,942.77c3.65.71,6.37,2.45,7.01,6.44l.17-.21c-3.4-.99-6.4-2.4-6.99-6.44,0,0-.2.21-.2.21Z"/>
    <path class="h" d="m4579.22,949.21c.84.22,1.68.44,1.99.52-.27-.11-1.04-.42-1.82-.73,0,0-.18.21-.18.21Z"/>
    <path class="h" d="m570.2,1829.82c-3.52-18.42-13.74-35-21.07-52.37-4.89-11.59-9.77-23.21-15.33-34.59-6.31-12.92-13.32-25.62-20.16-38.37-1.36-2.54-2.76-5.34-5.18-7.16-2.88-2.16-6.71-4.51-10.43-4.76-4.91-.34-6.71,3.79-7.96,7-2.33,5.96-4.23,12.01-6.28,18.03-3.56,10.48-8.84,20.27-16.88,29.34-18.77,21.18-17.64,40.62,3.34,59.75,6.9,6.29,13.39,12.55,18.09,20.17,6.33,10.27,6.29,19.13-6.37,26.78-5.17,7.71-15.24,10.08-23.91,13.94-8.15,3.62-16.53,6.91-24.55,10.71-3.92,1.85-5.98,4.99-4.71,8.71,1.21,3.52,4.44,5.69,8.84,6.28,3.43.46,7.06.28,10.59.15,35.33-1.28,69.04,4.41,102.01,12.64,7.79,1.95,14.62,6.23,21.63,9.76,3.5,1.76,6.19,4.46,9.57,6.4,11.25,6.44,22.7,7.59,35.33.65,15.49-8.52,30.28-17.55,42.24-29.23,1.82-1.78,3.74-3.5,5.34-5.39,10.66-12.64,7.37-18.47-11.41-19.46-21.18-1.11-42.45-1.58-63.61-2.85-6.93-.41-14.04-1.75-20.36-3.88-11.71-3.96-13.43-11.28-6.3-20.19,3.02-3.78,5.07-8.03,7.56-12.06Z"/>
  </g>
</svg>