<?xml version="1.0" encoding="UTF-8"?>
<svg id="b" data-name="Layer 2" xmlns="http://www.w3.org/2000/svg" xmlns:xlink="http://www.w3.org/1999/xlink" viewBox="0 0 11520 6480">
  <defs>
    <style>
      .f {
        opacity: .1;
      }

      .g {
        opacity: .15;
      }

      .h {
        fill: #fff;
      }

      .h, .i {
        stroke-width: 0px;
      }

      .i {
        fill: url(#d);
      }
    </style>
    <linearGradient id="d" x1="5760" y1="6480" x2="5760" y2="0" gradientUnits="userSpaceOnUse">
      <stop offset="0" stop-color="#fadf7d"/>
      <stop offset="1" stop-color="#fab17d"/>
    </linearGradient>
  </defs>
  <g id="c" data-name="BG gardient">
    <rect class="i" width="11520" height="6480"/>
  </g>
  <g id="e" data-name="clouds">
    <g class="g">
      <path class="h" d="m8672.15,1351.99c-663.66,0-1262.56,47.86-1687.21,124.67-352.2-191.69-1107.41-324.2-1982.23-324.2-307.18,0-599.61,16.34-865.03,45.84-7.66-169.93-855.07-307.3-1899.31-307.3s-1899.37,138.62-1899.37,309.62,850.38,309.62,1899.37,309.62c273.81,0,534.08-9.45,769.23-26.44-127.46,71.94-198.53,151.97-198.53,236.3,0,313.5,982.12,567.64,2193.64,567.64,797.95,0,1496.39-110.25,1880.24-275.09,427.75,88.24,1070.5,144.36,1789.2,144.36,1287.85,0,2331.85-180.21,2331.85-402.51s-1044.01-402.51-2331.85-402.51Z"/>
      <ellipse class="h" cx="2086.78" cy="2325.57" rx="963.06" ry="175.45"/>
      <ellipse class="h" cx="3700.79" cy="2693.67" rx="1230.58" ry="96.33"/>
    </g>
    <g class="f">
      <path class="h" d="m6663.9,4308.51c-418.24,0-795.67,17.49-1063.29,45.57-221.96-70.07-697.89-118.51-1249.21-118.51-193.59,0-377.88,5.97-545.15,16.76-4.83-62.11-538.87-112.33-1196.96-112.33s-1196.99,50.67-1196.99,113.18,535.91,113.18,1196.99,113.18c172.55,0,336.58-3.45,484.77-9.67-80.33,26.3-125.11,55.55-125.11,86.37,0,114.59,618.94,207.49,1382.44,207.49,502.87,0,943.03-40.3,1184.94-100.56,269.57,32.25,674.64,52.77,1127.56,52.77,811.61,0,1469.55-65.87,1469.55-147.13s-657.94-147.13-1469.55-147.13Z"/>
      <ellipse class="h" cx="2513.77" cy="4664.39" rx="606.93" ry="64.13"/>
      <ellipse class="h" cx="3530.93" cy="4798.94" rx="775.52" ry="35.21"/>
    </g>
    <g class="f">
      <path class="h" d="m2660.2,3369.32c399.33,0,759.7-15.82,1015.22-41.21,211.92,63.37,666.35,107.17,1192.74,107.17,184.84,0,360.8-5.4,520.5-15.15,4.61,56.17,514.51,101.58,1142.85,101.58s1142.88-45.82,1142.88-102.35-511.69-102.35-1142.88-102.35c-164.75,0-321.36,3.12-462.86,8.74,76.7-23.78,119.46-50.24,119.46-78.11,0-103.63-590.96-187.64-1319.95-187.64-480.14,0-900.4,36.44-1131.37,90.94-257.38-29.17-644.14-47.72-1076.59-47.72-774.92,0-1403.12,59.57-1403.12,133.05s628.2,133.05,1403.12,133.05Z"/>
    </g>
    <g class="f">
      <path class="h" d="m8728.37,4951.27c-299.3,0-569.4,5.95-760.91,15.49-158.84-23.82-499.42-40.29-893.96-40.29-138.53,0-270.42,2.03-390.11,5.7-3.45-21.12-385.63-38.19-856.56-38.19s-856.59,17.23-856.59,38.48,383.51,38.48,856.59,38.48c123.48,0,240.86-1.17,346.91-3.29-57.48,8.94-89.53,18.89-89.53,29.37,0,38.96,442.92,70.55,989.3,70.55,359.86,0,674.85-13.7,847.96-34.19,192.91,10.97,482.78,17.94,806.9,17.94,580.8,0,1051.63-22.4,1051.63-50.03s-470.83-50.03-1051.63-50.03Z"/>
      <ellipse class="h" cx="5758.47" cy="5072.28" rx="434.33" ry="21.81"/>
      <ellipse class="h" cx="6486.36" cy="5118.03" rx="554.97" ry="11.97"/>
    </g>
  </g>
</svg>