<?xml version="1.0" encoding="UTF-8"?>
<svg id="b" data-name="Layer 2" xmlns="http://www.w3.org/2000/svg" xmlns:xlink="http://www.w3.org/1999/xlink" viewBox="0 0 11520 885">
  <defs>
    <style>
      .e {
        fill: none;
      }

      .e, .f {
        stroke-width: 0px;
      }

      .g {
        clip-path: url(#d);
      }

      .f {
        fill: #271a5b;
      }
    </style>
    <clipPath id="d">
      <rect class="e" x="0" y="0" width="11520" height="885" transform="translate(11520 885) rotate(-180)"/>
    </clipPath>
  </defs>
  <g id="c" data-name="grass">
    <g class="g">
      <g>
        <path class="f" d="m10514.45,138.31c19.18-13.69,21.83-13.59,41.56,1.84-14.75,1.58-26.13,3.65-41.56-1.84Z"/>
        <path class="f" d="m11694.95,532.32c-3.06,2.8,3.47-166.94,0-164.76-30.48,19.13.98-95.67-24.03-70.61-13.11,13.14,2.97-57.84-12.02-47.07-19.54,14.04-2.53-30.51-18.24-12.94-6.07,6.78-11.31,14.26-16.2,20.49-15.93,3.17-23.67-11.28-37.76-12.73-3.79,3.3-8.41,6.89-12.5,10.98-7.36,7.36-16.2,9.05-25.9,6.67-6.59-1.62-12.87-4.38-19.4-6.28-17.14-4.99-34.45-9.41-51.47-14.76-16.3-5.12-31.59-4.73-46.65,4.01-10.4,6.04-20.8,4.92-31.5-.95-7.32-4.02-15.61-6.84-23.83-8.66-12.85-2.85-24.2-7.56-33.25-17.27-2.16-2.31-5.71-3.38-9.19-5.33-3.84,2.15-8.08,3.55-10.97,6.31-12.2,11.68-25.35,12.09-39.67,4.41-2.98-1.6-6.15-2.97-9.38-3.97-2.31-.71-4.87-.64-7.07-.89-4.09,4.73-7.88,9.09-11.99,13.84-9.89,0-19.44,1.18-28.53-.34-8.78-1.47-17.08-5.71-25.62-8.74-5.38,4.01-10.74,7.99-16.09,11.98-9.62-5.18-12.88,4.95-19.26,7.59-4.38,1.81-9.01,3.05-13.52,4.55-3.86-6.38-6.86-11.36-9.87-16.33-.13-6.47-3.45-11.32-9.3-13.56-10.17-3.89-20.51-7.52-31.05-10.21-10.77-2.74-20.83-.25-31.79,3.01-24.29,7.23-34.27,21.74-32.11,45.59-4.83.61-9.67,1.22-14.5,1.83-7.81-4.94-16.52-8.92-23.22-15.02-12.07-10.98-24.12-12.72-39.79-7.5-8.17,2.72-16.25,10.55-26.96,5.46-1.92-6.67-3.93-13.7-6.3-21.94-14.47-1.1-28.79-2.18-43.3-3.28-7.12,5.83-11.53,15.25-24.43,15.14-7.16-13.08-22.02-14.73-36.12-18.13-11.54-2.78-22.84-6.54-34.45-8.99-6.45-1.36-13.4-1.78-19.95-1.06-6.68.74-13.33,2.9-19.66,5.31-14.93,5.68-29.2,6.56-43.42-2.29-4.76-2.96-10.63-4.21-15.99-6.23-10.16-1.08-19.43-4.36-25.95-12.35-7.19-8.81-16.64-9.25-26.75-8.27-5.38-5.11-10.77-10.21-16.91-16.03-14.34,4.33-22.1,19.7-37.28,22.84,0,0,0,0,0,0-3.4,2.41-6.95,4.64-10.19,7.25-11.32,9.12-24.07,11.18-37.91,7.39-8.03-2.2-15.94-4.85-23.9-7.29-4.78,1.44-9.55,2.88-14.33,4.31-2.02,1.26-4.04,2.53-6.07,3.79-1.56.9-3.11,1.81-4.67,2.71-.45-4.84-.26-9.87-1.61-14.46-.76-2.6-3.88-6.07-6.25-6.32-3.6-.38-8.64.58-10.99,2.95-5.07,5.11-8.83,11.47-13.12,17.32,1.18,3.74,3.25,6.04,5.9,7.36.66.33,1.36.6,2.09.81-.73-.21-1.43-.48-2.09-.81-2.65-1.32-4.72-3.62-5.9-7.36-11.96-8.73-26.2-9.94-40.27-11.68-12.42,2.43-24.84,4.86-38.77,7.59-3.42,6.96-6.8,14.49-10.84,21.67-1.42,2.53-4.47,4.19-6.77,6.24-3.9-11.41-5.38-11.92-15.34-5.29,1.98,1.3,3.89,2.8,5.92,3.95-2.03-1.15-3.94-2.65-5.92-3.95-8.24-3.22-16.62-5.67-25.67-4.65-.11-8.23-6.08-11.66-12.79-13.33-2.26-.56-5.46,2.51-8.24,3.92-1.6-.13-3.14-.49-4.62-1.09h0c-2.62-1.82-5.22-5.16-7.87-5.2-10.04-.15-20.1.78-30.68,1.33-3.73,9.83-6.93,18.28-9.96,26.24-13.94-3.21-27.84-6.4-42.74-9.83-6.77,12.55-12.99,24.07-19.97,37-10.64-1.11-21.85-2.34-33.55.21-12.52,2.73-19.46-6.76-22.26-18.05-26.26,4.9-26.64,5.34-23.78,27.47-11.86,3.11-21.59-1.92-30.97-7.89-13.25-8.44-26.07-17.29-40.96-23.33-11.14-4.52-22.05-8.1-33.97-9.96-12.06-1.88-23.08-4.51-33.28,5.71-3.69,3.69-10.87,4.04-15.7,5.65-8.3,9.06-1.79,19.83-5,28.81-2.19.22-4.18,1.07-5.36.45-24.94-13.05-51.44-8.57-77.68-6.72-2.33.17-4.54,2.11-6.79,3.23h0c-1.77.22-3.54.44-5.31.66-4.77.54-10.26-.2-14.18,1.88-8.49,4.52-16.32,10.3-24.06,16.03-1.63,1.2-1.73,4.38-2.53,6.64l-.29.22c-5.79.5-10.96.61-16.7-2.66-10.31-5.87-22.3-5.84-34.01-5.08-6.05.39-11.41,2.49-14.88,7.8h0l-.93.34c-8.47.4-17.01.28-25.38,1.38-5.37.7-9.94.82-14.23-2.83-6.7-5.68-14.03-5.42-21.23-1.16-7.74,4.57-15.33,5.41-24.21,2.79-9.02-2.67-18.38-1.74-27.56,1.49-7.9,2.78-16.21,4.44-25.88,6.99-2.19-4.8-4.13-9.06-6.62-14.53-9.34-4.62-19.75-9.77-31.29-15.48-11.15,9.21-27.73,10.4-37.52,23.34-2.02,2.67-7.57,3.43-11.62,3.82-5,.49-10.13-.33-15.21-.58-1.51-.81-3.13-1.22-4.85-1.24-3.46-1.38-6.93-2.76-10.39-4.14l-.92-.25c-1.58-.03-3.25.18-4.83.15,1.58.03,3.25-.18,4.83-.15-5.68-4.72-11.35-9.44-17.56-14.61-8.31,1.52-16.42,2.81-24.44,4.53-8.87,1.9-17.24,4.17-26.22-1.22-3.47-2.08-10.07-1.2-14.23.58-2.97,1.27-3.89,6.6-6.38,9.6-2.03,2.45-5.01,4.14-7.57,6.17l-.78-.1c-7.64-5.57-16.81-1.56-24.97-3.83-6.41-5.06-12.22-11.43-21.72-9.92-13.04,2.07-26.66,2.58-38.89,6.87-9.38,3.29-17.68,2.81-26.66,1.51-10.67-6.55-21.41-12.47-34.69-7.18-15,5.98-27.55,2.39-37.86-9.6-1.06-1.23-2.44-2.2-3.67-3.29-.74-7.02,1.64-12.33,8.78-14.82,5.24-1.83,10.55-3.46,15.83-5.18-9.33-8.32-17.47-17.27-15.88-30.42-10.62-3.76-19.9-7.25-29.35-10.25-3.02-.96-6.58-1.23-9.71-.73-16.58,2.64-33.11,5.62-50.53,8.64,0,4.16,0,8.06,0,11.95,5.26,5.19,11.22,9.88,15.59,15.71,5.53,7.38,11.79,12.57,20.33,16.93,7.46,3.81,12.29,12.56,18.28,19.13,0,0,0,0,0,0-.11,2.9-.21,5.8-.32,8.7-15.37,4.73-28.3.98-39.35-10.38-7.26-7.47-16.69-11.6-26.81-13.43-12.51-2.26-25.21-3.53-37.84-5.22-11.62-1.56-21.6,1.56-30.59,9.11-7.64,6.41-15.27,13.37-27.59,13.76-3.31-2.4-8.23-4.65-11.2-8.38-10.66-13.38-25.06-19.24-41.52-21.82-5-.79-9.88-2.36-14.81-3.57-7.33,1.34-15.34-.98-21.8,4.98-10.43,9.62-22.84,9.52-35.91,6.4-15.62-3.72-31.37-6.94-46.23-10.2-13.99,6.44-26.99,12.42-39.99,18.4-9.86-5.97-21.39-4.65-32.11-6.89-.89-.19-2.28,1.92-3.44,2.96-5.79.33-14.11-1.61-16.9,1.39-10.28,11.03-27.84,11.99-35.52,26.49-3.91,7.39-12.07,8.98-20.22,6.06-11.85-4.25-23.57-8.85-35.21-13.25-10.66,5.72-19.51,14.63-34.18,12.98-5.37-8.99-11.15-18.67-16.61-27.81-19.88,4.14-31.48,22.14-52.24,22.99-1.83-6.23-4.07-11.61-4.91-17.19-2.49-16.41-12.66-23.23-28.56-27.32-18.86-4.85-37.02.46-55.47-.27-3.02-.12-6.21,2.18-9.21,3.6-5.26,2.49-10.18,6.05-15.7,7.55-6.38,1.73-10.29,4.82-12.87,10.73-1.89,4.32-5.15,8.06-8.34,12.87-6.43-2.6-11.85-4.67-17.17-6.96-5.38-2.32-10.66-4.84-15.99-7.27-7.33-7.01-16.81-3.63-25.3-5.01l-.15-.16c-6.88-11.39-16.35-18.86-30.47-19.32-5.24-.17-11.4-.09-13.21,5.23-3.67,10.76-11.81,10.39-20.58,9.91-2.52-.14-5.07.2-7.61.31,0,0,0,0,0,0-1.89-.21-3.79-.41-5.68-.62-1.48-.06-2.97-.12-4.45-.18h0s0,0,0,0h0c-6.92.07-13.84.15-20.76.22-8.93-2.22-10.93,5.01-14.45,10.16-3.69.02-7.37.05-11.06.07-4.78,10.23-8.96,14.72-14.24,13.9,5.28.82,9.47-3.67,14.24-13.9-14.15-10.69-29.15-14.32-45.66-5.24,0,0,0,0,0,0l-.59.28c-1.99,1.25-3.97,2.5-5.96,3.75-1.56.66-3.16,1.28-4.69,2-22.06,10.46-24.87,10.06-42.52-5.87-1.85-1.67-3.92-3.12-5.49-4.35-23.67-5.35-45.75,5.21-68.12,5.18-3.35-6.13-5.34-11.97-9.17-16.23-4.35-4.84-9.74-10.17-15.73-12-24.7-7.53-64.33-4.11-78.16,20.91-1.6,2.89-4.01,5.42-6.34,7.85-10.37,10.81-21.65,11.99-34.11,3.51-2.79-1.9-5.27-4.24-7.79-6.49-9.02-8.09-18.73-7.79-28.6-3.21-22.4-23.89-43.81-46.51-45.45-47.43-3.84,2.15-8.08,3.55-10.97,6.31-12.2,11.68-25.35,12.09-39.67,4.41-2.98-1.6-6.15-2.97-9.38-3.97-2.31-.71-4.87-.64-7.07-.89-4.09,4.73-7.88,9.09-11.99,13.84-9.89,0-19.44,1.18-28.53-.34-8.78-1.47-17.08-5.71-25.62-8.74-1.09.81-2.16,1.61-3.24,2.42-7.6-1.89-14.88-1.45-22.43,2.49-3.75,1.96-7.81,3.35-11.65,5.16-5.85,2.75-11.72,4.16-17.51,4.18-1.34-2.22-2.63-4.34-3.9-6.46-4.6.65-9.38.76-13.8,1.97-.51-.27-1.03-.54-1.54-.84-8.29-4.82-16.82-7.55-26.35-8.66-10.4-1.22-18.9-6.13-26.68-13.49-9.31-8.82-17.57-8.97-26.75-.16-7.99,7.66-16.62,12.1-27.29,10.68-6.31-.84-12.24-4.47-15.36-5.68-8.98,2.92-15.61,7.29-21.51,6.48-9.02-1.23-11.36,5.5-16.43,8.98-13.08-5.28-26.04-9.62-38.8-9.76-.18-.61-.35-1.22-.53-1.85-14.47-1.1-28.79-2.18-43.3-3.28-4.7,3.85-8.23,9.25-13.79,12.45-8.52-6.84-18.04-10.11-28.28-10.79-5.82-1.97-12.22-3.14-18.48-4.65-11.54-2.78-22.84-6.54-34.45-8.99-6.45-1.36-13.4-1.78-19.95-1.06-6.68.74-13.33,2.9-19.65,5.31-14.93,5.68-29.2,6.56-43.42-2.29-4.76-2.96-10.63-4.21-15.99-6.23-10.16-1.08-19.43-4.36-25.95-12.35-7.19-8.81-16.64-9.25-26.75-8.27-5.45,6.01-10.9,12.01-15.85,17.47q-20.11-.73-38.33-10.66c-3.4,2.41-6.95,4.64-10.19,7.25-11.32,9.12-24.07,11.18-37.91,7.39-8.03-2.2-15.94-4.84-23.9-7.29-4.78,1.44-9.55,2.88-14.33,4.31-2.02,1.26-4.04,2.53-6.07,3.79-1.56.9-3.11,1.81-4.67,2.71-4.09,5.6-9.96,7.93-16.7,8.31-7.01.4-12.92-1.34-15.28-8.81-11.96-8.73-26.2-9.94-40.27-11.68-12.42,2.43-24.84,4.86-38.77,7.59-3.42,6.96-6.8,14.49-10.84,21.67-1.42,2.53-4.47,4.19-6.77,6.24-6.45,1.94-10.7-2.23-15.34-5.29-8.24-3.22-16.62-5.67-25.67-4.65-10.03,3.33-16.33-1.31-21.03-9.41-1.6-.13-3.14-.49-4.62-1.09-4.05.93-11.2,1.12-11.65,2.92-3.06,12.12-16.34,10.58-22.22,16.18-1.93,7.64-3.47,13.73-4.57,18.06-7.47.16-14.13.85-20.35.97-4.93-1.71-9.75-3.39-14.54-5.05-2.32,1.64-4.32,2.94-6.11,4.21-5.09.94-9.2,3.7-12.8,8.1-.06.07-.12.14-.18.21-8.92,3.57-18.44,2.9-28.38-.61-3.21-1.13-6.4-2.37-9.47-3.82-8.33-3.94-16.48-3.75-24.48.75-10.17,5.72-20.31,11.51-31.7,17.97-2.47-3.06-4.78-6.33-7.5-9.23-6.9-7.34-13.22-15.45-21.14-21.55-20.81-16.02-46.91-15.39-67.98.52-2.02,1.52-3.82,3.59-6.09,4.47-5.37,2.09-9.31,4.98-11.96,8.64-4.08-.81-8.12-1.6-12.15-2.36-1.5-.28-3.24.65-4.87,1.02-6.4,6.58-12.41,13.61-19.13,19.82-10.14-4.57-19.07-11.49-26.8-20.92-7.05,8.57-14.93,11.79-25.4,10.15-11.07-1.74-21.15-3.33-29.11-12.97-6.6-7.99-17.35-9.81-27.99-10.12-10.39-.3-17.8,4.38-24.37,11.57-1.56,1.71-4.39,2.3-6.61,3.38-6.59-3.6-10.77-10.37-20.11-9.41-6.34.65-13.12-2.6-19.67-4.2-15.69-3.82-31.49-7.29-47.02-11.68-13.26-3.75-25.37-1.33-36.87,4.93-7.69,4.18-15.49,6.61-24.34,6.35-7.12-.21-10.77-4.09-13.1-9.98.29-3.26.22-6.6.94-9.78,4.57-20.24,4.32-20.89-14.39-29.78-2.26-1.08-4.5-2.23-6.84-3.11-16.79-6.34-23.63-3.21-30.37,13.91-.59,1.49-.51,3.23-.75,4.85,11.56,8.63,22.98,17.56,36.75,21.64-13.77-4.08-25.18-13.01-36.75-21.64-9.57-1.72-18.23-.44-26.92,4.68-13.28,7.82-27.28,8.34-40.91-.04-22.25,17.51-46.14,23.25-72.2,8.81-17.11,6.96-33.46,13.62-50.33,20.48-6.15-6.86-11.66-13-16.75-18.69-4.2-.63-7.55-1.49-10.93-1.59-27.11-.78-55.12-4.45-71.77,24.82-1.81,3.19-9.52,5.82-13.41,4.79-19.53-5.19-40.7-4.95-58.43-16.3-2.83-1.81-5.93-3.26-9.02-4.66-8.51-3.84-16.38-3.7-23.27,3.5-7.44,7.76-15.06,15.35-23.67,24.09-4.05-1.37-8.75-2.86-13.39-4.54-9.72-3.51-18.05-2.09-25.65,5.32-5.99,5.84-13.22,10.46-19.3,16.23-.97.92-1.97,1.74-2.99,2.47-5.99-4.05-12.88-6.55-20.13-7.86-12.51-2.26-25.21-3.53-37.84-5.22-11.62-1.56-21.6,1.56-30.59,9.11-6.14,5.15-12.28,10.65-20.84,12.81-6.99-3.6-13.97-7.2-20.93-10.84-8.64-9.21-19.36-14.26-31.43-17.04-9.64-5.14-19.6-6.93-30.34-6.51-1.87.88-3.68,1.94-5.58,2.7-1.38.27-2.74.68-4.06,1.3-8.44,2.58-16.52,5.55-23.09,10.74-5.33.34-10.88-.45-16.57-1.8-15.62-3.72-31.37-6.94-46.23-10.2-13.99,6.44-26.99,12.42-39.99,18.4-3.74,3.21-7.83,6.02-13.04,4.3-7.59-2.5-15.01-5.47-22.51-8.23-5.79.33-14.11-1.61-16.9,1.39-10.28,11.03-27.84,11.99-35.52,26.49-3.91,7.39-12.07,8.98-20.22,6.06-11.85-4.25-23.57-8.85-35.21-13.25-10.66,5.72-19.51,14.63-34.18,12.98-5.37-8.99-11.15-18.67-16.61-27.81-19.88,4.14-31.48,22.14-52.24,22.99-1.83-6.23-4.07-11.61-4.91-17.19-2.49-16.41-12.66-23.23-28.56-27.32-18.86-4.85-37.02.46-55.47-.27-3.02-.12-6.21,2.18-9.21,3.6-5.26,2.49-10.18,6.05-15.7,7.55-6.38,1.73-10.29,4.82-12.87,10.73-1.89,4.32-5.15,8.06-8.34,12.87-6.43-2.6-11.85-4.67-17.17-6.96-5.38-2.32-10.67-4.84-15.99-7.27-8.74-.18-18.19,3.09-25.3-5.01l-.15-.16c-8.87,1.32-18.52,5.45-26.41,3.31-11.63-3.15-22.92-1.79-34.29-2.9-3.83-.37-7.45-2.8-11.17-4.28-1.89-.21-3.79-.41-5.68-.62l-2.24.39-2.2-.57c-6.92.07-13.84.15-20.76.22-.75,8.93-7.06,10.27-14.45,10.16-3.69.02-7.37.05-11.06.07-7.64,16.37-13.77,18.04-25.29,6.79-1.79-1.75-3.43-3.76-4.67-5.91-3.6-6.27-9.95-5.39-15.71-6.12l-.59.28c-1.99,1.25-3.97,2.5-5.96,3.75-1.56.66-3.16,1.28-4.69,2-22.06,10.46-24.87,10.06-42.52-5.87-1.85-1.67-3.92-3.12-5.49-4.35-23.67-5.35-45.75,5.21-68.12,5.18-3.35-6.13-5.34-11.97-9.17-16.23-4.35-4.84-9.74-10.17-15.73-12-24.7-7.53-64.33-4.11-78.16,20.91-1.6,2.89-4.01,5.42-6.34,7.85-10.37,10.81-21.65,11.99-34.11,3.51-2.79-1.9-5.27-4.24-7.79-6.49-9.66-8.66-20.11-7.7-30.69-2.18-3.72,1.94-6.62,5.64-10.47,7.05-4.45,1.64-9.53,1.65-14.79,2.44-2.4-4.64-4.34-8.28-6.18-11.96-2.93-5.85-3.62-13.16-11.14-15.96-9.11-3.39-18.52-3.77-27.58-.77-5.53,1.83-10.46,5.49-15.58,8.44-4.22,2.43-8.33,5.05-12.09,7.35-3.33-1.98-6.1-2.82-7.58-4.65-9.79-12.14-22.88-16.04-38.12-17.3-3.84-.32-7.7-.99-11.53-1.9-13.9-13.23-30.73-15.85-49.19-12.78-3.36.56-6.78,1.01-10.18,1.07-13.12.24-23.44,3.4-28.65,13.48-2.56-.86-5.09-1.99-7.58-3.44-8.29-4.82-16.83-7.55-26.35-8.66-10.4-1.22-18.9-6.13-26.68-13.49-9.31-8.82-17.57-8.97-26.75-.16-7.99,7.66-16.62,12.1-27.29,10.68-6.31-.84-12.24-4.47-15.36-5.68-8.98,2.92-15.61,7.29-21.51,6.48-9.02-1.23-11.36,5.5-16.43,8.98-25.36-10.23-50.3-17-74.21,3.72-6.04,5.23-12.81,2.63-18.24-2.66-14-13.67-31.03-16.37-49.72-13.26-3.36.56-6.78,1.01-10.18,1.07-17.15.32-29.53,5.6-31.95,24.86-.93,7.39-8.54,9.62-16.25,6.1-6.06-2.77-11.72-6.39-14.23-7.78-13.84.92-23.83,1.58-33.79,2.24-3.44-5.52-5.74-9.94-8.73-13.87-7.68-10.12-15.41-12.15-26.54-5.78-7.24,4.15-13.46,10-20.13,15.08-.75,3.9-1.5,7.81-2.3,11.99-8.37-4.89-16.28-10.55-23.59-17.35-1.21-1.12-2.76-2.09-4.34-2.57-1.43-.43-3.1-.09-4.81-.09-1.57,4.37-3.12,8.7-5.01,13.95l-.2.07-1.84-.51c-.26.33-.53.66-.8.98-5.08-.91-9.81-1.76-14.4-2.59-2.74,3.3-5.27,6.35-7.8,9.4-11.07-3.85-21.22-7.37-31.23-10.86-3.7,2.61-6.56,4.36-9.1,6.48-11.65,9.75-24.61,10.29-38.36,5.43-3.21-1.13-6.4-2.37-9.47-3.82-8.33-3.94-16.48-3.75-24.48.76-7.91,4.45-15.81,8.94-24.28,13.76-3.55.26-7.22.21-10.85-.18-1.3-1.66-2.62-3.3-4.07-4.84-6.9-7.34-13.22-15.45-21.14-21.55-20.81-16.02-46.91-15.39-67.98.52-2.02,1.52-3.82,3.59-6.09,4.47-8.95,3.49-13.97,9.18-15.57,17.01-17.25-7-33.26-15.89-47.12-28.79-1.21-1.12-2.76-2.09-4.34-2.57-1.43-.43-3.1-.09-4.81-.09-1.67,4.64-3.31,9.23-5.36,14.94-6.05-1.09-11.55-2.08-16.88-3.03-2.74,3.3-5.27,6.35-7.8,9.4-11.07-3.85-21.22-7.37-31.23-10.86-1.01.71-1.95,1.36-2.85,1.97-6.17-3.48-13.84-4.49-21.46-4.72-10.39-.3-17.8,4.38-24.37,11.57-.67.73-1.57,1.25-2.55,1.7-1.93-.75-3.84-1.54-5.71-2.42-2.54-1.2-5.07-2.01-7.58-2.44-2.98-1.95-6.31-3.33-10.87-2.86-6.34.65-13.12-2.6-19.67-4.2-15.69-3.82-31.49-7.29-47.02-11.68-7.11-2.01-13.88-2.23-20.42-1.06-15.89-3.95-32.76-.24-47.25,10.71,0,0-.02.01-.02.02-3.11-1.69-5.14-4.62-6.62-8.37-20.83-.35-35.98-12.41-51.4-23.9-9.57-1.72-18.23-.44-26.92,4.68-13.28,7.82-27.28,8.34-40.91-.04-22.25,17.51-46.14,23.25-72.2,8.81-13.96,5.68-27.43,11.16-41.07,16.71-5.35-1.28-10.71-2.54-16.06-3.82-3.5-3.9-6.81-7.6-9.95-11.1-4.2-.63-7.55-1.49-10.93-1.59-24.5-.71-49.74-3.76-66.65,17.26-6.95-.3-10.55-4.15-12.85-9.96-20.83-.35-35.98-12.41-51.4-23.9-9.57-1.72-18.23-.44-26.92,4.68-13.28,7.82-27.28,8.34-40.91-.04-22.25,17.51-46.14,23.25-72.2,8.81-17.11,6.96-33.46,13.62-50.33,20.48-6.15-6.86-11.66-13-16.75-18.69-4.2-.63-7.55-1.49-10.93-1.59-27.11-.78-55.12-4.45-71.77,24.82-1.81,3.19-9.52,5.82-13.41,4.79-19.53-5.19-40.7-4.95-58.43-16.3-2.83-1.81-5.93-3.26-9.02-4.66-8.51-3.84-16.38-3.7-23.27,3.5-7.44,7.76-15.06,15.35-23.67,24.09-4.05-1.37-8.75-2.86-13.39-4.54-9.72-3.51-18.05-2.09-25.65,5.32-5.99,5.84-13.22,10.46-19.3,16.23-6.68,6.35-14.52,8.16-23.35,7.86-10.3-.35-19.39-2.79-28.82-8.01-15.84-8.76-26.93-1.9-29.8,15.86-.39,2.39-1.19,4.72-2.18,8.58-7.39-3.23-14.37-5.85-20.94-9.23-19.55-10.08-39.18-20.05-58.29-30.89-10.07-5.71-20.45-7.69-31.7-7.25-2.3,1.08-4.51,2.48-6.93,3.19-14.91,4.41-29.09,9.41-36.35,24.9-2.81,5.99-9.85,7.14-15.71,5.98-17.94-3.52-35.58,1.12-53.37,1.05-18.11-.07-35.47,4.09-51.39,13.04-14.69,8.26-30.3,12.67-47.35,11.75-3.56-1.4-7.52-1.88-11.58-2.09-3.4-.17-6,.85-8.36,2.37-6.55.83-12.98,2.47-19.2,5.19-7.46,3.26-14.76,4.44-22.01,3.21-.93-.6-1.87-1.25-2.8-1.97-3.22-2.49-7.67-3.44-11.56-5.1-1.79.02-3.58.04-5.37.06-2.28-.32-4.6-.27-6.97.08-16.28.18-32.55.36-48.83.54-15.5.09-31.01.18-46.51.26-2.24-2.1-4.41-4.75-6.52-8.03-7.5-11.68-19.98-11.1-33.5-2.78-14.39,8.85-29.23,15.61-45.41,17.88-3.1-1.36-6.21-3.03-9.33-4.96-5.01-3.1-10.57-5.4-16-7.81-11.62-5.15-22.98-11.14-35.05-14.96-24.36-7.7-47.03-5.57-65.42,14.44-3.85,4.19-8.69,7.5-12.35,10.6-.64-.1-1.27-.22-1.88-.35-1.41-.82-2.82-1.74-4.23-2.84-3.22-2.49-7.67-3.44-11.56-5.1-.1,0-.2,0-.3,0-3.09-2.51-5.87-5.32-8.68-8.09-19.04-18.79-41.64-25.09-67.58-17.49-19.54,5.73-38.96,11.98-58.05,19.02-8.7,3.21-17.88,6.56-26.18,14.49-7.63,4.04-15.26,4.77-22.92,3.16-11.4-7.31-22.85-14.55-34.81-20.86-9.39-4.95-17.63-7.09-25.49-6.5-3.13-1.27-6.29-2.44-9.5-3.46-24.36-7.7-47.03-5.57-65.42,14.44-3.85,4.19-8.69,7.5-12.35,10.6-12.43-1.89-19.46-9.28-26.65-16.37-19.04-18.79-41.64-25.09-67.58-17.49-13,3.82-25.95,7.87-38.79,12.22-.76-1.13-1.54-2.24-2.37-3.32-8.69-11.23-19.53-17.96-34.93-16.72-13.56,1.09-27.25.7-40.88.97-1.14,1.22-2.07,2.77-3.46,3.6-9.03,5.37-16.57,11.46-21.53,19.07,0,0,0,0,0,0-20.75-10.95-35.94-8.18-53.61,7.52-4.41,3.92-8.85,7.89-12.73,12.3-7.53,8.54-16.77,11.15-27.59,8.14-16.38-4.56-32.85-8.27-49.86-10.09-7.37-.79-15.3-3.52-21.36-7.63-11.8-8.01-21.83-8.19-31.67,2.29-.57.61-1.23,1.17-1.94,1.63-16.5,10.74-30.23,7.57-40.07-9.15-2.96-5.04-5.73-10.26-9.3-14.87-8.69-11.23-19.53-17.96-34.93-16.72-13.56,1.09-27.25.7-40.88.97-1.14,1.22-2.07,2.77-3.46,3.6-17.83,10.6-29.88,24.02-27.65,46.47.9,9.08-5.34,15.32-15.65,18.82-4.62-1.97-9.95-4.47-15.44-6.55-30.16-11.45-30.69-11.47-50.98,13.74-4.82,5.99-10.21,9.87-16.16,11.92-7.88-.03-15.76-.07-23.65-.1-12.04-3.33-21.98-10.55-32.59-16.67-28.76-16.6-59.52-17.84-87.28-1.16-22.32,13.41-46.13,18.44-70.17,18.98-38.96.88-78.34,5.13-117.13-3.58-4.07-.91-8.49-.39-12.76-.4-23.02-.07-46.04-.32-69.06,0-7.57.1-15.09,1.91-22.67,2.61-25.29,2.34-50.08,9.63-75.84,7.33,0,110.22,0,220.45,0,330.67h-104.19s0,741.41,0,741.41h12039.94m-415.96-1110.91c-.62-.9-1.26-1.78-1.87-2.68.61.9,1.26,1.78,1.87,2.68,0,0,0,0,0,0Zm-1257.81-28.91c-1.55-.07-2.62-.48-3.44-1.34.81.86,1.88,1.27,3.44,1.34Zm-1760.66-24.18c-1.02,1.73-2.47,2.86-4.21,3.59,1.75-.73,3.2-1.86,4.21-3.59Zm40.23-1.32c-.59-.21-1.18-.45-1.77-.7.59.26,1.18.49,1.77.7Zm3.36.81c-.85-.08-1.69-.28-2.53-.53.84.25,1.68.45,2.53.53Zm82.85,4.82c-1.11.06-2.22.14-3.34.21-3.9.27-7.78.49-11.4-.58,3.62,1.07,7.51.85,11.4.58,1.11-.08,2.23-.16,3.34-.21Zm1002.17,25.74c-4.87.47-9.76,1.05-14.3-.55,4.54,1.6,9.43,1.02,14.3.55Zm26.32,3c-2.91,1.2-5.94,1.84-8.97,1.72,3.02.12,6.06-.52,8.97-1.72Zm417.16-11.92c-1.05.65-2.13,1.16-3.24,1.59,1.11-.43,2.19-.94,3.24-1.59Zm530.06-56.25c-1.31-.29-2.54-.81-3.73-1.46,1.18.65,2.41,1.17,3.73,1.46Zm4.3.05c-.77.15-1.51.21-2.23.2.71.01,1.46-.05,2.23-.2Zm680.09,31.17c-2.29,2.84-3.6,3.86-5.75,3.28,2.14.58,3.46-.44,5.75-3.28Z"/>
      </g>
    </g>
  </g>
</svg>