<?xml version="1.0" encoding="UTF-8"?>
<svg id="b" data-name="Layer 2" xmlns="http://www.w3.org/2000/svg" viewBox="0 0 346.55 187.24">
  <defs>
    <style>
      .d {
        fill: #fff;
        stroke-width: 0px;
      }
    </style>
  </defs>
  <g id="c" data-name="Layer 5">
    <path class="d" d="m158.11,187.24h-47.14s4.65-38.51-19.92-51.13-42.49-24.57-48.47-29.21S9.38,64.4,6.06,59.76-.58,19.26.09,11.29,2.74,0,11.37,0s11.95,13.19,12.44,20.09,2.96,24.15,2.96,24.15c0,0,23.16,29.08,28.09,32.03s20.78,10.84,24.19,6.9-24.19-27.6-26.65-31.05-6.16-17-1.48-21.68,12.81-4.44,26.12,8.38,27.6,30.06,45.83,36.96,34.99,23.66,38.44,50.76-3.21,60.7-3.21,60.7Z"/>
    <path class="d" d="m191.06,187.24h46.36s-4.57-38.51,19.59-51.13c24.16-12.62,41.79-24.57,47.67-29.21s32.65-42.49,35.91-47.14,6.53-40.5,5.88-48.47-2.61-11.29-11.1-11.29-11.75,13.19-12.24,20.09c-.48,6.9-2.91,24.15-2.91,24.15,0,0-22.78,29.08-27.63,32.03s-20.43,10.84-23.79,6.9,23.79-27.6,26.21-31.05c2.42-3.45,6.06-17,1.45-21.68s-12.6-4.44-25.69,8.38-27.14,30.06-45.07,36.96c-17.93,6.9-34.41,23.66-37.8,50.76-3.39,27.11,3.16,60.7,3.16,60.7Z"/>
  </g>
</svg>